<svg width="21" height="23" viewBox="0 0 21 23" fill="none" xmlns="http://www.w3.org/2000/svg">
<path d="M10.5 0C4.71506 0 0 4.40712 0 9.81424C0 15.2214 4.71506 19.6285 10.5 19.6285V23L12.2956 21.9244C14.904 20.3607 19.6607 16.9845 20.7653 11.8674C20.9165 11.2074 21 10.5206 21 9.81424C21 4.40712 16.2849 0 10.5 0ZM10.5 2.18094C15.0237 2.18094 18.6667 5.58596 18.6667 9.81424C18.6667 10.364 18.6021 10.8997 18.4821 11.4201L18.4798 11.4287L18.4775 11.435C17.7844 14.6498 15.1335 17.017 12.8333 18.6892V17.2282L11.5208 17.3815C11.1697 17.4225 10.8313 17.4475 10.5 17.4475C5.97627 17.4475 2.33333 14.0425 2.33333 9.81424C2.33333 5.58596 5.97627 2.18094 10.5 2.18094Z" fill="#0E1B47"/>
</svg>
