<svg width="80" height="21" viewBox="0 0 80 21" fill="none" xmlns="http://www.w3.org/2000/svg">
<path d="M2.27115 4.60671C3.37098 2.31532 7.00247 0.00290753 9.65865 0.00290753C15.5313 0.402447 18.312 0.969917 18.312 3.80788C18.312 6.64584 14.9295 7.59183 9.65865 7.59183C4.36705 7.59183 2.27115 7.36059 2.27115 4.60671ZM8.57958 4.62774C8.28906 4.79591 8.64183 5.44759 9.09836 5.15328C10.0322 4.64876 10.8622 3.74482 11.215 2.79883C11.381 2.35737 10.8 1.99999 10.634 2.31532C10.0944 3.28233 9.43039 4.03912 8.57958 4.62774ZM7.00247 13.9405C5.79889 14.3399 4.45005 14.5921 3.16346 14.6552C1.64861 14.7393 -0.409355 13.9405 1.06757 13.0365C-1.18072 11.544 1.64861 11.4809 2.76919 11.544C3.84826 11.628 4.98959 11.6701 6.15167 11.7121C6.13091 11.5229 6.13091 11.3337 6.13091 11.1235C6.13091 11.0184 6.13091 10.9133 6.13091 10.8292C4.78207 10.7872 3.47474 10.7241 2.27115 10.619C1.08832 10.5349 0.362025 10.0934 0.362025 9.14745C-0.795037 7.78103 1.08832 7.69694 2.27115 7.78103C6.71195 8.07534 12.4186 8.05431 17.0254 7.78103C18.229 7.69694 18.9553 8.34862 18.9553 9.14745C18.9553 10.0934 18.229 10.5559 17.0046 10.619C15.7803 10.7241 14.4937 10.7872 13.1656 10.8292C13.1656 10.9343 13.1656 11.0184 13.1656 11.1235C13.1656 11.3337 13.1656 11.544 13.1449 11.7332C14.3277 11.6911 15.469 11.628 16.5481 11.544C17.6894 11.4809 18.229 12.0064 18.229 12.8263C18.229 13.52 17.7102 14.1086 16.9631 14.1297C14.6597 14.1717 12.4393 14.8234 10.9867 15.8535C10.717 16.0427 10.883 16.4631 11.215 16.2529C12.5016 15.4961 14.0579 14.8024 15.7388 14.7393C17.3989 14.7183 18.395 15.5171 18.395 16.7784C18.395 18.1028 17.3989 18.6704 15.5313 18.7965C11.5055 19.0698 6.96097 19.0278 3.16346 18.7755C1.73162 18.6914 0.88081 18.292 0.88081 17.1989C-0.795037 16.2529 1.91838 15.2438 3.37098 15.1387C4.65757 15.0126 5.84039 14.8654 7.14773 14.424C7.43825 14.3189 7.29299 13.8143 7.00247 13.9405Z" fill="#F8333D"/>
<path d="M24.3132 4.79591C23.7322 4.94307 23.1926 5.00613 22.6738 4.96409C21.076 4.83796 20.1007 4.06014 20.1214 2.63065C20.1422 0.801743 21.989 0.00290753 24.417 0.00290753C26.8449 0.00290753 27.9654 0.696633 28.8993 1.76875C29.0445 1.95795 29.418 1.68466 29.2935 1.49547C29.1068 1.20116 28.4635 0.633567 27.9447 0.402326C29.4388 0.0659738 29.6931 -0.0179992 31.6022 0.0030225C34.2584 0.0240454 35.3548 0.843786 36.1018 2.31532C36.8904 3.89197 37.4281 5.93682 36.7225 6.86178C36.1622 7.68164 35.5397 8.74804 34.1701 8.74804C32.2402 8.74804 30.8499 7.84409 31.9705 4.60671C31.3479 4.73285 30.5179 4.79591 29.9783 4.79591C29.9783 8.09636 28.4012 8.74804 26.6374 8.74804C24.2717 8.74804 23.0681 7.59183 24.3132 4.79591ZM20.0799 10.4088C20.0799 9.60994 20.8062 8.95826 21.989 9.04235C26.4298 9.33665 32.1365 9.31563 36.7433 9.04235C37.9469 8.95826 38.8016 8.98544 38.8016 9.78428C38.8016 10.7513 37.9469 11.8803 36.7225 11.9644C32.1365 12.2797 26.4298 12.2797 21.989 11.9644C20.8062 11.8593 20.0799 11.3758 20.0799 10.4088ZM21.1887 15.8535C21.1887 13.8774 21.9268 12.8263 23.4624 12.574C25.1017 12.3007 26.4298 12.8263 27.1976 13.8353C27.7994 14.6132 27.5089 16.0637 26.7204 16.6313C26.4506 16.8415 26.6581 17.2409 26.9694 17.0097C29.169 15.37 31.9497 13.5831 35.0624 13.5831C36.598 13.5831 39.8797 12.8683 40.0872 14.424C40.2532 16.1267 37.4281 18.4392 35.0002 18.7335C32.4062 19.0698 28.2975 19.1119 24.417 18.8806C21.9683 18.7125 21.1887 17.5773 21.1887 15.8535Z" fill="#F8333D"/>
<path d="M50.2778 2.4757V1.99219C50.2778 -0.0889807 56.939 -0.19409 57.5616 2.26548C57.9144 3.6319 57.8936 4.66198 57.5616 5.88125C57.2503 6.95337 56.0675 7.66812 54.3036 7.81527C50.9004 8.10958 47.6632 8.10958 44.2392 7.81527C42.4961 7.66812 40.2964 6.95337 39.9852 5.88125C39.6324 4.66198 37.6708 4.08668 37.6709 1.55074C37.0281 -0.996 48.2442 -0.0889807 48.2442 1.99219V2.4757C49.012 2.39161 49.5515 2.39161 50.2778 2.4757ZM47.5387 4.61994C47.4142 4.83016 47.5179 4.95629 47.8084 5.12446C48.7422 5.65001 49.8421 5.62899 50.7759 5.12446C50.9626 5.01935 51.0664 4.89322 51.0041 4.66198C50.9419 4.4938 50.7344 4.36767 50.5269 4.47278C49.8006 4.89322 48.7422 4.8722 48.0159 4.45176C47.8707 4.36767 47.6217 4.43074 47.5387 4.61994ZM45.7748 12.2089C45.7748 12.1668 45.7748 12.1458 45.7748 12.1038C45.7748 11.8094 45.7955 11.5782 45.8786 11.389C44.4882 11.347 43.1394 11.2629 41.8943 11.1788C40.7115 11.0947 39.9852 10.6322 39.9852 9.70725C39.9852 8.90842 40.7115 8.23571 41.8943 8.3198C46.3351 8.63513 52.0417 8.61411 56.6485 8.3198C57.8521 8.23571 58.5784 8.90842 58.5784 9.70725C58.5784 10.6322 57.8521 11.1157 56.6278 11.1788C55.3827 11.2629 54.0754 11.3259 52.7058 11.368C52.7888 11.5572 52.8095 11.8094 52.8095 12.1038C52.8095 12.1458 52.8095 12.1668 52.8095 12.2089C53.9716 12.1668 55.1129 12.1248 56.1712 12.0407C57.3126 11.9566 57.8521 12.356 57.8521 13.1969C57.8521 13.8696 57.3333 14.3741 56.5863 14.3951C54.2829 14.4372 52.0625 15.1099 50.6099 16.14C50.3401 16.3081 50.5061 16.7286 50.8381 16.5394C52.1247 15.7616 53.6811 15.0889 55.3619 15.0468C57.022 14.9838 58.0181 15.6985 58.0181 16.9598C58.0181 18.2842 57.2296 20.861 55.3619 20.9872C51.3362 21.2604 48.2442 17.0649 44.2392 18.7887C42.8073 18.7046 42.3923 18.3187 41.8943 17.0649C41.8943 15.8246 41.5415 15.5303 42.9941 15.4042C44.2807 15.2991 45.4635 15.1519 46.7709 14.6895C47.0614 14.5843 46.9161 14.1008 46.6256 14.2059C45.422 14.6054 44.0732 14.8576 42.7866 14.9207C41.2717 15.0258 40.6907 14.3531 40.6907 13.3861C40.6907 12.5032 41.2717 11.9566 42.3923 12.0407C43.4714 12.1248 44.6127 12.1668 45.7748 12.2089Z" fill="#F8333D"/>
<path d="M63.9363 4.85112C63.3552 4.99827 62.8157 5.06134 62.2969 5.0193C60.6991 4.89316 59.7237 4.11535 59.7445 2.68586C59.7652 0.85695 61.2594 0.0581178 64.1853 0.0581178C66.4887 0.0581178 67.5885 0.75184 68.5223 1.82396C68.6676 2.01316 69.0411 1.73987 68.9166 1.55067C68.7299 1.25637 68.0866 0.688777 67.5678 0.457536C69.0619 0.121184 70.0579 0.0370961 71.9671 0.0581178C74.6233 0.0791407 78.3204 1.00404 79.0675 2.47557C79.8561 4.05222 78.039 7.4158 76.5946 7.4158C76.0343 8.23565 75.1628 8.80325 73.7932 8.80325C71.8633 8.80325 70.473 7.8993 71.5936 4.66192C70.971 4.78805 70.1409 4.85112 69.6014 4.85112C69.6014 8.15157 68.0243 8.80325 66.2604 8.80325C63.8948 8.80325 62.6912 7.64704 63.9363 4.85112ZM59.703 10.464C59.703 9.66515 60.4293 9.01347 61.6121 9.09756C66.0529 9.39186 71.7596 9.37084 76.3664 9.09756C77.57 9.01347 79.0675 8.90842 79.0675 9.70725C79.0675 10.6743 77.57 11.9355 76.3456 12.0196C71.7596 12.3349 66.0529 12.3349 61.6121 12.0196C60.4293 11.9145 59.703 11.431 59.703 10.464ZM60.3255 16.0348C60.3255 14.0587 61.5499 12.8815 63.0855 12.6292C64.7248 12.356 66.0529 12.8815 66.8207 13.8906C67.4225 14.6684 67.132 16.1189 66.3434 16.6865C66.0737 16.8967 66.2812 17.2961 66.5925 17.0649C68.7921 15.4252 71.5728 13.6383 74.6855 13.6383C76.2211 13.6383 77.1887 11.8305 77.3962 13.3861C77.5622 15.0889 74.395 18.4944 71.9671 18.7887C69.3731 19.125 67.6493 20.9643 63.7688 20.733C61.3201 20.5648 60.3255 17.7586 60.3255 16.0348Z" fill="#F8333D"/>
</svg>
