<svg width="17" height="20" viewBox="0 0 17 20" fill="none" xmlns="http://www.w3.org/2000/svg">
<path d="M11.3333 5.45455V17.2455L7.35722 15.6L6.61111 15.2909L5.865 15.6L1.88889 17.2455V5.45455H11.3333ZM15.1111 0H5.65722C4.61833 0 3.77778 0.818182 3.77778 1.81818H13.2222C14.2611 1.81818 15.1111 2.63636 15.1111 3.63636V15.4545L17 16.3636V1.81818C17 0.818182 16.15 0 15.1111 0ZM11.3333 3.63636H1.88889C0.85 3.63636 0 4.45455 0 5.45455V20L6.61111 17.2727L13.2222 20V5.45455C13.2222 4.45455 12.3722 3.63636 11.3333 3.63636Z" fill="black"/>
</svg>
